# xmcd CD database file
# Copyright (C) 1993-1996 Ti Kan
#
# Track frame offsets:
#	150
#	21195
#	45935
#	72207
#
# Disc length: 1138 seconds
#
# Revision: 1
# Processed by: cddbd v1.4b41PL1 Copyright (c) Steve Scherf et al.
# Submitted via: CDValet v3.01 - Copyright (c) 1997 Greg Leichner
#
DISCID=28047004
DTITLE=Stomping Roach - Stomping Roach
DYEAR=1900
DGENRE=
TTITLE0=I Don't Want
TTITLE1=Easily
TTITLE2=You
TTITLE3=Instructions
EXTD=
EXTT0=
EXTT1=
EXTT2=
EXTT3=
PLAYORDER=
